<?xml version="1.0"?>


<svg version="1.1" id="Layer_1" xmlns="http://www.w3.org/2000/svg" xmlns:xlink="http://www.w3.org/1999/xlink" x="0px" y="0px" width="600px" height="700px" viewBox="0 0 600 700" enable-background="new 0 0 600 700" xml:space="preserve">
<g>
&#x9;<polygon fill="none" points="343.771,349.168 343.771,349.195 343.795,349.168 343.771,349.168 &#x9;"></polygon>
&#x9;<polygon fill="none" points="343.771,349.168 343.747,349.168 343.771,349.168 343.771,349.168 &#x9;"></polygon>
&#x9;<polygon fill="none" points="343.771,349.168 343.795,349.168 343.795,349.168 343.795,349.168 343.771,349.168 &#x9;"></polygon>
&#x9;<polygon fill="none" points="343.747,349.195 343.747,349.195 343.771,349.168 343.747,349.168 &#x9;"></polygon>
&#x9;<polygon fill="none" points="343.747,349.195 343.747,349.211 343.747,349.211 343.747,349.211 343.747,349.211 &#x9;"></polygon>
&#x9;<polygon fill="none" points="343.747,349.211 343.747,349.211 343.747,349.211 &#x9;"></polygon>
&#x9;<polygon fill="none" points="343.795,349.168 343.771,349.139 343.771,349.168 &#x9;"></polygon>
&#x9;<rect x="343.747" y="349.195" fill="none" width="0" height="0"></rect>
&#x9;<polygon fill="none" points="343.747,349.195 343.747,349.211 343.747,349.195 &#x9;"></polygon>
&#x9;<polygon fill="none" points="343.747,349.211 343.747,349.211 343.747,349.195 343.747,349.195 343.747,349.195 &#x9;"></polygon>
&#x9;<rect x="343.771" y="349.139" fill="none" width="0" height="0.029"></rect>
&#x9;<polygon fill="none" points="343.771,349.139 343.771,349.139 343.771,349.139 &#x9;"></polygon>
&#x9;<rect x="343.771" y="349.139" fill="none" width="0" height="0"></rect>
&#x9;<polygon fill="none" points="343.747,349.168 343.747,349.168 343.747,349.168 &#x9;"></polygon>
&#x9;<rect x="343.771" y="349.168" fill="none" width="0" height="0"></rect>
&#x9;<polygon fill="none" points="343.747,349.211 343.747,349.195 343.747,349.195 &#x9;"></polygon>
&#x9;<polygon fill="none" points="343.747,349.168 343.747,349.168 343.747,349.168 &#x9;"></polygon>
&#x9;<polygon fill="none" points="343.708,349.097 343.747,349.139 343.771,349.139 &#x9;"></polygon>
&#x9;<polygon fill="none" points="343.836,349.139 343.836,349.139 343.836,349.139 &#x9;"></polygon>
&#x9;<polygon fill="none" points="343.836,349.168 343.795,349.168 343.795,349.168 &#x9;"></polygon>
&#x9;<polygon fill="none" points="343.747,349.195 343.747,349.195 343.747,349.195 &#x9;"></polygon>
&#x9;<polygon fill="none" points="343.662,349.139 343.708,349.139 343.708,349.139 &#x9;"></polygon>
&#x9;<polygon fill="none" points="343.747,349.168 343.747,349.168 343.708,349.168 343.747,349.195 &#x9;"></polygon>
&#x9;<rect x="343.747" y="349.168" fill="none" width="0" height="0"></rect>
&#x9;<polygon fill="none" points="343.747,349.195 343.747,349.195 343.747,349.168 343.747,349.195 343.747,349.195 343.747,349.195 &#x9;&#xA;&#x9;&#x9;"></polygon>
&#x9;<polygon fill="none" points="343.747,349.168 343.708,349.139 343.708,349.168 343.747,349.168 &#x9;"></polygon>
&#x9;<polygon fill="none" points="343.708,349.195 343.747,349.195 343.747,349.195 &#x9;"></polygon>
&#x9;<polygon fill="none" points="343.708,349.168 343.662,349.168 343.708,349.195 343.747,349.195 &#x9;"></polygon>
&#x9;<polygon fill="none" points="343.771,349.168 343.771,349.168 343.747,349.168 &#x9;"></polygon>
&#x9;<polygon fill="none" points="343.747,349.168 343.747,349.168 343.771,349.168 343.747,349.168 &#x9;"></polygon>
&#x9;<polygon fill="none" points="343.747,349.168 343.747,349.168 343.771,349.168 343.771,349.139 343.771,349.139 343.747,349.139 &#xA;&#x9;&#x9;343.747,349.168 &#x9;"></polygon>
&#x9;<polygon fill="none" points="343.747,349.139 343.708,349.139 343.708,349.139 343.747,349.168 &#x9;"></polygon>
&#x9;<polygon fill="none" points="343.747,349.168 343.747,349.195 343.747,349.168 343.747,349.168 &#x9;"></polygon>
&#x9;<polygon fill="none" points="343.771,349.139 343.771,349.139 343.795,349.129 343.795,349.097 &#x9;"></polygon>
&#x9;<polygon fill="none" points="343.795,349.139 343.795,349.129 343.771,349.139 &#x9;"></polygon>
&#x9;<polygon fill="none" points="343.795,349.168 343.795,349.168 343.795,349.168 343.795,349.139 &#x9;"></polygon>
&#x9;<polygon fill="none" points="343.747,349.211 343.747,349.229 343.747,349.211 &#x9;"></polygon>
&#x9;<polygon fill="none" points="343.771,349.139 343.795,349.168 343.795,349.139 343.795,349.139 343.771,349.139 &#x9;"></polygon>
&#x9;<rect x="343.815" y="349.118" fill="none" width="0" height="0.041"></rect>
&#x9;<polygon fill="none" points="343.795,349.275 343.795,349.211 343.747,349.211 &#x9;"></polygon>
&#x9;<polygon fill="none" points="343.747,349.211 343.747,349.229 343.795,349.375 343.795,349.33 343.795,349.275 343.747,349.211 &#x9;&#xA;&#x9;&#x9;"></polygon>
&#x9;<polygon fill="none" points="343.795,349.195 343.795,349.211 343.889,349.261 343.836,349.195 &#x9;"></polygon>
&#x9;<polygon fill="none" points="343.795,349.195 343.747,349.195 343.747,349.195 343.747,349.211 343.795,349.211 343.795,349.195 &#x9;&#xA;&#x9;&#x9;"></polygon>
&#x9;<polygon fill="none" points="343.795,349.168 343.836,349.139 343.795,349.139 &#x9;"></polygon>
&#x9;<polygon fill="none" points="343.747,349.195 343.747,349.195 343.747,349.195 &#x9;"></polygon>
&#x9;<polygon fill="none" points="343.771,349.168 343.747,349.195 343.747,349.195 343.747,349.195 343.771,349.195 &#x9;"></polygon>
&#x9;<rect x="343.747" y="349.195" fill="none" width="0" height="0"></rect>
&#x9;<polygon fill="none" points="343.747,349.211 343.747,349.229 343.747,349.229 343.747,349.211 343.747,349.211 &#x9;"></polygon>
&#x9;<rect x="343.747" y="349.195" fill="none" width="0" height="0.016"></rect>
&#x9;<polygon fill="none" points="343.747,349.195 343.795,349.195 343.771,349.195 &#x9;"></polygon>
&#x9;<polygon fill="none" points="343.747,349.211 343.747,349.211 343.747,349.195 &#x9;"></polygon>
&#x9;<polygon fill="none" points="343.795,349.168 343.795,349.168 343.771,349.195 343.795,349.195 343.795,349.195 &#x9;"></polygon>
&#x9;<polygon fill="none" points="343.795,349.195 343.836,349.195 343.795,349.168 343.795,349.195 &#x9;"></polygon>
&#x9;<polygon fill="none" points="343.795,349.195 343.795,349.168 343.795,349.168 343.795,349.168 &#x9;"></polygon>
&#x9;<polygon fill="none" points="343.795,349.168 343.795,349.168 343.795,349.168 &#x9;"></polygon>
&#x9;<rect x="343.795" y="349.168" fill="none" width="0" height="0"></rect>
&#x9;<polygon fill="none" points="343.795,349.195 343.795,349.195 343.795,349.195 &#x9;"></polygon>
&#x9;<polygon fill="none" points="343.795,349.168 343.795,349.168 343.795,349.168 &#x9;"></polygon>
&#x9;<path fill="#D3D92B" d="M554.81,562.048L431.537,438.679c-11.526,11.413-25.253,20.512-40.444,26.707l65.806,161.46&#xA;&#x9;&#x9;C493.803,611.843,527.017,589.678,554.81,562.048z"></path>
&#x9;<path fill="#009B8F" d="M431.537,261.391L554.81,138.071c-27.372-27.19-60.011-49.14-96.208-64.204l-67.133,160.968&#xA;&#x9;&#x9;C406.508,241.026,420.124,250.113,431.537,261.391z"></path>
&#x9;<path fill="#3FB498" d="M294.888,235.631l-68.95-160.226c-37.174,16.003-70.43,39.345-97.982,68.167l126.24,120.264&#xA;&#x9;&#x9;C265.655,251.902,279.451,242.26,294.888,235.631z"></path>
&#x9;<path fill="#F7EE82" d="M343.795,474.569v174.309c0.106,0,0.22,0,0.309,0c39.932,0,78.015-7.828,112.795-22.032l-65.806-161.46&#xA;&#x9;&#x9;c-14.501,5.928-30.366,9.184-46.989,9.184C344.015,474.569,343.901,474.569,343.795,474.569z"></path>
&#x9;<path fill="#1DAB9E" d="M254.195,263.836l-126.24-120.264c-26.466,27.721-47.652,60.492-61.956,96.735l162.348,63.648&#xA;&#x9;&#x9;C234.335,288.92,243.185,275.335,254.195,263.836z"></path>
&#x9;<path fill="#1DAB9E" d="M343.795,225.521V51.122c-41.879,0.047-81.729,8.709-117.857,24.283l68.95,160.226&#xA;&#x9;&#x9;C309.879,229.162,326.419,225.57,343.795,225.521z"></path>
&#x9;<path fill="#1DAB9E" d="M344.104,225.521c16.767,0,32.772,3.305,47.365,9.315l67.133-160.968&#xA;&#x9;&#x9;c-35.269-14.653-73.935-22.746-114.498-22.746c-0.089,0-0.202,0-0.309,0v174.398C343.901,225.521,344.015,225.521,344.104,225.521z&#xA;&#x9;&#x9;"></path>
&#x9;<path fill="#95C23D" d="M228.347,303.955L65.999,240.307c-13.334,33.717-20.676,70.452-20.767,108.861h174.291&#xA;&#x9;&#x9;C219.657,333.197,222.753,317.965,228.347,303.955z"></path>
&#x9;<path fill="#D3D92B" d="M295.056,464.543l-67.794,160.621c35.826,15.218,75.177,23.669,116.533,23.714V474.569&#xA;&#x9;&#x9;C326.508,474.496,310.028,470.96,295.056,464.543z"></path>
&#x9;<path fill="#D3D92B" d="M253.133,435.098L126.651,555.047c28.128,29.838,62.317,53.854,100.61,70.117l67.794-160.621&#xA;&#x9;&#x9;C279.094,457.696,264.854,447.607,253.133,435.098z"></path>
&#x9;<path fill="#AFCB37" d="M219.523,350.049c0-0.289,0-0.586,0-0.881H45.232c0,0.295-0.042,0.592-0.042,0.881&#xA;&#x9;&#x9;c0,37.951,7.119,74.228,19.987,107.647l162.486-63.295C222.424,380.61,219.523,365.657,219.523,350.049z"></path>
&#x9;<path fill="#95C23D" d="M227.664,394.401L65.178,457.696c14.11,36.438,35.118,69.432,61.474,97.351l126.481-119.949&#xA;&#x9;&#x9;C242.217,423.412,233.498,409.618,227.664,394.401z"></path>
</g>
</svg>