<?xml version="1.0" encoding="utf-8"?>
<!-- Generator: Adobe Illustrator 16.0.0, SVG Export Plug-In . SVG Version: 6.00 Build 0)  -->
<!DOCTYPE svg PUBLIC "-//W3C//DTD SVG 1.1//EN" "http://www.w3.org/Graphics/SVG/1.1/DTD/svg11.dtd">
<svg version="1.1" id="Layer_1" xmlns="http://www.w3.org/2000/svg" xmlns:xlink="http://www.w3.org/1999/xlink" x="0px" y="0px"
	 width="538.02px" height="143.295px" viewBox="0 0 538.02 143.295" enable-background="new 0 0 538.02 143.295"
	 xml:space="preserve">
<g>
	<polygon fill="none" points="71.577,71.448 71.577,71.455 71.582,71.448 71.577,71.448 	"/>
	<polygon fill="none" points="71.577,71.448 71.571,71.448 71.577,71.448 71.577,71.448 	"/>
	<polygon fill="none" points="71.577,71.448 71.582,71.448 71.582,71.448 71.582,71.448 71.577,71.448 	"/>
	<polygon fill="none" points="71.571,71.455 71.571,71.455 71.577,71.448 71.571,71.448 	"/>
	<polygon fill="none" points="71.571,71.455 71.571,71.458 71.571,71.458 71.571,71.458 71.571,71.458 	"/>
	<polygon fill="none" points="71.571,71.458 71.571,71.458 71.571,71.458 	"/>
	<polygon fill="none" points="71.582,71.448 71.577,71.44 71.577,71.448 	"/>
	<rect x="71.571" y="71.455" fill="none" width="0" height="0"/>
	<polygon fill="none" points="71.571,71.455 71.571,71.458 71.571,71.455 	"/>
	<polygon fill="none" points="71.571,71.458 71.571,71.458 71.571,71.455 71.571,71.455 71.571,71.455 	"/>
	<rect x="71.577" y="71.44" fill="none" width="0" height="0.007"/>
	<polygon fill="none" points="71.577,71.44 71.577,71.44 71.577,71.44 	"/>
	<rect x="71.577" y="71.44" fill="none" width="0" height="0"/>
	<polygon fill="none" points="71.571,71.448 71.571,71.448 71.571,71.448 	"/>
	<rect x="71.577" y="71.448" fill="none" width="0" height="0"/>
	<polygon fill="none" points="71.571,71.458 71.571,71.455 71.571,71.455 	"/>
	<polygon fill="none" points="71.571,71.448 71.571,71.448 71.571,71.448 	"/>
	<polygon fill="none" points="71.56,71.431 71.571,71.44 71.577,71.44 	"/>
	<polygon fill="none" points="71.593,71.44 71.593,71.44 71.593,71.44 	"/>
	<polygon fill="none" points="71.593,71.448 71.582,71.448 71.582,71.448 	"/>
	<polygon fill="none" points="71.571,71.455 71.571,71.455 71.571,71.455 	"/>
	<polygon fill="none" points="71.55,71.44 71.56,71.44 71.56,71.44 	"/>
	<polygon fill="none" points="71.571,71.448 71.571,71.448 71.56,71.448 71.571,71.455 	"/>
	<rect x="71.571" y="71.448" fill="none" width="0" height="0"/>
	<polygon fill="none" points="71.571,71.455 71.571,71.455 71.571,71.448 71.571,71.455 71.571,71.455 71.571,71.455 	"/>
	<polygon fill="none" points="71.571,71.448 71.56,71.44 71.56,71.448 71.571,71.448 	"/>
	<polygon fill="none" points="71.56,71.455 71.571,71.455 71.571,71.455 	"/>
	<polygon fill="none" points="71.56,71.448 71.55,71.448 71.56,71.455 71.571,71.455 	"/>
	<polygon fill="none" points="71.577,71.448 71.577,71.448 71.571,71.448 	"/>
	<polygon fill="none" points="71.571,71.448 71.571,71.448 71.577,71.448 71.571,71.448 	"/>
	<polygon fill="none" points="71.571,71.448 71.571,71.448 71.577,71.448 71.577,71.44 71.577,71.44 71.571,71.44 71.571,71.448 	
		"/>
	<polygon fill="none" points="71.571,71.44 71.56,71.44 71.56,71.44 71.571,71.448 	"/>
	<polygon fill="none" points="71.571,71.448 71.571,71.455 71.571,71.448 71.571,71.448 	"/>
	<polygon fill="none" points="71.577,71.44 71.577,71.44 71.582,71.438 71.582,71.431 	"/>
	<polygon fill="none" points="71.582,71.44 71.582,71.438 71.577,71.44 	"/>
	<polygon fill="none" points="71.582,71.448 71.582,71.448 71.582,71.448 71.582,71.44 	"/>
	<polygon fill="none" points="71.571,71.458 71.571,71.462 71.571,71.458 	"/>
	<polygon fill="none" points="71.577,71.44 71.582,71.448 71.582,71.44 71.582,71.44 71.577,71.44 	"/>
	<rect x="71.587" y="71.435" fill="none" width="0" height="0.011"/>
	<polygon fill="none" points="71.582,71.474 71.582,71.458 71.571,71.458 	"/>
	<polygon fill="none" points="71.571,71.458 71.571,71.462 71.582,71.497 71.582,71.486 71.582,71.474 71.571,71.458 	"/>
	<polygon fill="none" points="71.582,71.455 71.582,71.458 71.604,71.47 71.593,71.455 	"/>
	<polygon fill="none" points="71.582,71.455 71.571,71.455 71.571,71.455 71.571,71.458 71.582,71.458 71.582,71.455 	"/>
	<polygon fill="none" points="71.582,71.448 71.593,71.44 71.582,71.44 	"/>
	<polygon fill="none" points="71.571,71.455 71.571,71.455 71.571,71.455 	"/>
	<polygon fill="none" points="71.577,71.448 71.571,71.455 71.571,71.455 71.571,71.455 71.577,71.455 	"/>
	<rect x="71.571" y="71.455" fill="none" width="0" height="0"/>
	<polygon fill="none" points="71.571,71.458 71.571,71.462 71.571,71.462 71.571,71.458 71.571,71.458 	"/>
	<rect x="71.571" y="71.455" fill="none" width="0" height="0.003"/>
	<polygon fill="none" points="71.571,71.455 71.582,71.455 71.577,71.455 	"/>
	<polygon fill="none" points="71.571,71.458 71.571,71.458 71.571,71.455 	"/>
	<polygon fill="none" points="71.582,71.448 71.582,71.448 71.577,71.455 71.582,71.455 71.582,71.455 	"/>
	<polygon fill="none" points="71.582,71.455 71.593,71.455 71.582,71.448 71.582,71.455 	"/>
	<polygon fill="none" points="71.582,71.455 71.582,71.448 71.582,71.448 71.582,71.448 	"/>
	<polygon fill="none" points="71.582,71.448 71.582,71.448 71.582,71.448 	"/>
	<rect x="71.582" y="71.448" fill="none" width="0" height="0"/>
	<polygon fill="none" points="71.582,71.455 71.582,71.455 71.582,71.455 	"/>
	<polygon fill="none" points="71.582,71.448 71.582,71.448 71.582,71.448 	"/>
	<path fill="#D3D92B" d="M122.167,122.479L92.615,92.905c-2.762,2.735-6.053,4.918-9.695,6.402l15.776,38.706
		C107.542,134.417,115.505,129.104,122.167,122.479z"/>
	<path fill="#009B8F" d="M92.615,50.405l29.552-29.562c-6.562-6.518-14.386-11.78-23.063-15.391L83.011,44.04
		C86.616,45.523,89.88,47.702,92.615,50.405z"/>
	<path fill="#3FB498" d="M59.857,44.23L43.328,5.821c-8.91,3.836-16.882,9.432-23.488,16.341l30.263,28.83
		C52.85,48.131,56.157,45.819,59.857,44.23z"/>
	<path fill="#F7EE82" d="M71.582,101.509v41.786c0.026,0,0.053,0,0.076,0c9.572,0,18.7-1.877,27.039-5.281L82.92,99.308
		c-3.477,1.421-7.279,2.201-11.263,2.201C71.635,101.509,71.608,101.509,71.582,101.509z"/>
	<path fill="#1DAB9E" d="M50.103,50.992L19.84,22.162C13.496,28.807,8.417,36.663,4.988,45.351l38.918,15.258
		C45.343,57.005,47.464,53.748,50.103,50.992z"/>
	<path fill="#1DAB9E" d="M71.582,41.807V0C61.543,0.011,51.99,2.087,43.328,5.821l16.529,38.41
		C63.451,42.68,67.416,41.818,71.582,41.807z"/>
	<path fill="#1DAB9E" d="M71.657,41.807c4.018,0,7.854,0.792,11.354,2.233L99.104,5.452C90.649,1.939,81.379,0,71.657,0
		c-0.022,0-0.049,0-0.076,0v41.807C71.608,41.807,71.635,41.807,71.657,41.807z"/>
	<path fill="#95C23D" d="M43.907,60.609L4.988,45.351C1.792,53.434,0.032,62.24,0.01,71.448h41.782
		C41.824,67.619,42.566,63.967,43.907,60.609z"/>
	<path fill="#D3D92B" d="M59.899,99.105L43.647,137.61c8.587,3.647,18.021,5.674,27.934,5.685v-41.786
		C67.438,101.492,63.488,100.644,59.899,99.105z"/>
	<path fill="#D3D92B" d="M49.849,92.047l-30.321,28.755c6.743,7.152,14.939,12.91,24.12,16.809l16.251-38.505
		C56.072,97.464,52.659,95.046,49.849,92.047z"/>
	<path fill="#AFCB37" d="M41.792,71.659c0-0.069,0-0.141,0-0.211H0.01c0,0.07-0.01,0.142-0.01,0.211
		c0,9.096,1.707,17.794,4.792,25.805l38.951-15.173C42.486,78.985,41.792,75.399,41.792,71.659z"/>
	<path fill="#95C23D" d="M43.742,82.291L4.792,97.464c3.382,8.735,8.418,16.645,14.736,23.338l30.321-28.755
		C47.23,89.246,45.142,85.938,43.742,82.291z"/>
</g>
<g>
	<path d="M170.494,94.922c-6.518,5.346-10.608,6.211-18.798,6.211c-8.012,0-14.938-2.828-20.68-8.58
		c-5.751-5.738-8.575-12.657-8.575-20.681c0-8.098,2.824-15.018,8.575-20.762c5.742-5.743,12.668-8.577,20.68-8.577
		c8.26,0,15.105,4.014,18.415,6.534l-9.519,14.313c-0.077-0.08-0.077-0.08-0.156-0.158c-2.447-2.44-5.354-3.621-8.74-3.621
		c-3.38,0-6.363,1.18-8.718,3.621c-2.442,2.357-3.628,5.269-3.628,8.649c0,3.386,0.707,6.138,3.149,8.494
		c2.355,2.442,5.817,3.386,9.197,3.386c3.385,0,7.241-0.546,9.683-2.989c0.074-0.078,0.227-0.237,0.227-0.237l10.621,12.667
		L170.494,94.922z"/>
	<path d="M223.038,92.553c-5.747,5.672-12.584,8.58-20.691,8.58c-8.093,0-14.939-2.908-20.68-8.58
		c-5.667-5.738-8.578-12.657-8.578-20.681c0-8.098,2.911-15.018,8.578-20.691c5.741-5.736,12.587-8.647,20.68-8.647
		c8.107,0,14.944,2.912,20.691,8.647c5.735,5.673,8.652,12.593,8.652,20.691C231.689,79.896,228.773,86.814,223.038,92.553z
		 M211.003,63.223c-2.437-2.44-5.271-3.621-8.657-3.621c-3.457,0-6.291,1.18-8.724,3.621c-2.361,2.357-3.541,5.269-3.541,8.649
		c0,3.386,1.18,6.296,3.541,8.736c2.433,2.359,5.267,3.541,8.724,3.541c3.386,0,6.221-1.182,8.657-3.541
		c2.522-2.439,3.698-5.35,3.698-8.736C214.701,68.492,213.526,65.58,211.003,63.223z"/>
	<path d="M287.141,99.01h-16.754l-0.166,0.08l-17.537-25.249V99.01h-16.906V44.502l16.906-0.078l17.459,24.851V44.424h16.998V99.01z
		"/>
	<path d="M335.193,91.061c-5.428,5.352-11.803,7.949-19.277,7.949H293.58V44.343h22.336c7.475,0,13.85,2.676,19.277,8.021
		c5.338,5.352,8.023,11.799,8.023,19.273C343.217,79.186,340.531,85.637,335.193,91.061z M326.299,71.794
		c0-2.671-0.945-5.114-2.908-7.234c-1.809-2.125-4.402-3.227-7.475-3.227h-5.414v20.763h1.717c3.939,0.084,7.787,0.166,11.018-3.065
		C325.432,76.907,326.299,74.31,326.299,71.794z"/>
	<path d="M363.814,59.362v5.119h22.02v13.687h-22.02v5.428h22.494V99.01H346.83V44.424h39.396v14.938H363.814z"/>
	<path d="M443.568,99.01h-16.76l-0.154,0.08l-17.537-25.249V99.01h-16.914V44.502l16.914-0.078l17.463,24.851V44.424h16.988V99.01z"
		/>
	<path d="M479.666,65.58c10.225,1.807,14.943,9.913,13.924,17.387c-0.953,6.287-2.764,10.932-7.705,14.861
		c-5.115,3.857-12.756,3.547-18.895,3.471c-6.438-0.166-16.119-2.055-16.119-2.055l3.307-16.277c0,0,8.344,1.258,14.553,1.645
		c3.148,0.166,6.768,0.869,7.395-2.117c0.23-1.104,0.307-3.228-4.092-3.777c0,0-0.154-0.079-5.111-0.707
		c-4.881-0.706-7.23-1.264-7.23-1.264c-8.031-1.648-11.25-9.672-10.465-15.729c0.859-6.369,2.59-11.01,7.631-14.862
		c5.016-3.934,11.164-4.254,17.146-4.015c5.893,0.317,16.822,2.203,16.822,2.203l-3.537,15.733c0,0-9.51-1.178-13.525-1.494
		c-5.033-0.32-6.842-0.706-7.477,1.572c-0.463,1.728,0.635,2.912,1.652,3.303c0,0,0.875,0.394,6.299,1.178
		C477.229,65.185,479.666,65.58,479.666,65.58z"/>
	<path d="M515.527,59.362v5.119h22.023v13.687h-22.023v5.428h22.492V99.01h-39.48V44.424h39.412v14.938H515.527z"/>
</g>
<g>
	<path d="M185.479,112.592c0,0.291-0.229,0.539-0.497,0.539c-1.377,0-2.257,0.332-2.79,1c-0.574,0.666-0.879,1.871-0.879,3.826
		v2.746h3.21c0.268,0,0.459,0.248,0.459,0.539c0,0.293-0.191,0.541-0.459,0.541h-3.21v18.889c0,0.289-0.229,0.539-0.498,0.539
		c-0.267,0-0.496-0.25-0.496-0.539v-18.889h-3.059c-0.268,0-0.497-0.248-0.497-0.541c0-0.291,0.229-0.539,0.497-0.539h3.059v-2.746
		c0-2.08,0.343-3.535,1.146-4.535c0.841-0.998,2.027-1.33,3.517-1.33C185.25,112.092,185.479,112.301,185.479,112.592z"/>
	<path d="M191.712,131.186c-0.037-0.082-0.037-0.125,0-0.252v-9.523c0-0.293,0.23-0.541,0.459-0.541
		c0.307,0,0.459,0.248,0.459,0.541v6.904c0.306-0.748,0.688-1.582,1.186-2.412c1.454-2.371,3.859-5.033,7.455-5.033
		c0.305,0,0.495,0.248,0.495,0.541c0,0.291-0.19,0.541-0.495,0.541c-2.371,0-4.169,1.246-5.429,2.787
		c-1.339,1.662-2.254,3.742-2.752,5.033c-0.306,0.914-0.459,1.414-0.459,1.414v9.527c0,0.332-0.152,0.539-0.459,0.539
		c-0.229,0-0.459-0.207-0.459-0.539V131.186z"/>
	<path d="M215.454,120.869c4.893,0,8.868,4.576,8.868,10.191c0,5.574-3.976,10.191-8.868,10.191s-8.828-4.617-8.828-10.191
		C206.626,125.445,210.562,120.869,215.454,120.869z M215.454,140.213c4.318,0,7.912-4.117,7.912-9.152
		c0-5.074-3.594-9.15-7.912-9.15s-7.873,4.076-7.873,9.15C207.581,136.096,211.136,140.213,215.454,140.213z"/>
	<path d="M259.53,129.105c0-3.994-2.941-7.195-6.497-7.195c-3.554,0-6.459,3.078-6.574,6.902v0.293v11.607
		c0,0.08,0,0.123-0.038,0.164c0,0.041-0.04,0.084-0.04,0.127c-0.036,0.041-0.036,0.041-0.036,0.082
		c-0.114,0.125-0.23,0.166-0.382,0.166c-0.27,0-0.459-0.248-0.459-0.539v-11.607c0-3.994-2.943-7.195-6.574-7.195
		c-3.517,0-6.422,3.078-6.537,6.902v11.9c0,0.123-0.039,0.205-0.076,0.291c-0.038,0.041-0.038,0.041-0.038,0.082
		c-0.038,0-0.038,0.041-0.075,0.041c-0.076,0.084-0.192,0.125-0.269,0.125h-0.114c-0.229-0.041-0.421-0.248-0.421-0.539v-11.607
		c0-0.334,0.038-0.666,0.077-0.998v-6.697c0-0.334,0.152-0.541,0.458-0.541c0.229,0,0.458,0.207,0.458,0.541v3.701
		c1.3-2.537,3.709-4.242,6.537-4.242c3.21,0,5.961,2.203,7.033,5.324c1.068-3.121,3.821-5.324,7.07-5.324
		c4.129,0,7.453,3.701,7.453,8.236v11.607c0,0.291-0.189,0.539-0.46,0.539c-0.229,0-0.496-0.248-0.496-0.539V129.105z"/>
	<path d="M295.587,141.252c-0.229,0-0.459-0.248-0.459-0.539v-5.035c-1.491,3.287-4.549,5.574-8.063,5.574
		c-5.047,0-9.1-4.617-9.1-10.234c0-5.572,4.053-10.148,9.1-10.148c3.515,0,6.572,2.287,8.063,5.617v-13.73
		c0-0.289,0.23-0.621,0.459-0.621c0.306,0,0.498,0.332,0.498,0.621v17.848v0.414v0.502v9.193
		C296.085,141.004,295.893,141.252,295.587,141.252z M295.128,130.645c-0.152-4.867-3.783-8.734-8.063-8.734
		c-4.474,0-8.143,4.076-8.143,9.107c0,5.078,3.669,9.195,8.143,9.195c4.395,0,8.063-4.117,8.063-9.195V130.645z"/>
	<path d="M320.094,121.41v19.303c0,0.332-0.191,0.539-0.458,0.539c-0.308,0-0.498-0.207-0.498-0.539v-5.076
		c-1.451,3.328-4.434,5.615-7.873,5.615c-4.893,0-8.829-4.617-8.829-10.191c0-5.572,3.937-10.191,8.829-10.191
		c3.439,0,6.422,2.328,7.873,5.617v-5.076c0-0.248,0.19-0.541,0.498-0.541C319.902,120.869,320.094,121.162,320.094,121.41z
		 M319.138,131.061c0-5.033-3.555-9.109-7.873-9.109s-7.873,4.076-7.873,9.109c0,5.076,3.555,9.152,7.873,9.152
		S319.138,136.137,319.138,131.061z"/>
	<path d="M334.396,121.41c0,0.291-0.229,0.5-0.498,0.5h-3.057v16.223c0,1.164,0.879,2.121,1.949,2.121
		c0.268,0,0.497,0.207,0.497,0.498c0,0.293-0.229,0.543-0.497,0.543c-1.605,0-2.905-1.416-2.905-3.162V121.91h-3.211
		c-0.267,0-0.496-0.209-0.496-0.5c0-0.293,0.229-0.541,0.496-0.541h3.211v-8.154c0-0.291,0.189-0.541,0.459-0.541
		c0.268,0,0.497,0.25,0.497,0.541v8.154h3.057C334.167,120.869,334.396,121.117,334.396,121.41z"/>
	<path d="M357.908,121.41v19.303c0,0.332-0.193,0.539-0.46,0.539c-0.307,0-0.497-0.207-0.497-0.539v-5.076
		c-1.453,3.328-4.436,5.615-7.873,5.615c-4.894,0-8.829-4.617-8.829-10.191c0-5.572,3.936-10.191,8.829-10.191
		c3.438,0,6.42,2.328,7.873,5.617v-5.076c0-0.248,0.19-0.541,0.497-0.541C357.715,120.869,357.908,121.162,357.908,121.41z
		 M356.951,131.061c0-5.033-3.556-9.109-7.873-9.109c-4.32,0-7.875,4.076-7.875,9.109c0,5.076,3.555,9.152,7.875,9.152
		C353.396,140.213,356.951,136.137,356.951,131.061z"/>
	<path d="M383.678,121.41c0,0.291-0.23,0.5-0.499,0.5h-3.057v16.223c0,1.164,0.88,2.121,1.95,2.121c0.267,0,0.497,0.207,0.497,0.498
		c0,0.293-0.23,0.543-0.497,0.543c-1.604,0-2.905-1.416-2.905-3.162V121.91h-3.211c-0.268,0-0.496-0.209-0.496-0.5
		c0-0.293,0.229-0.541,0.496-0.541h3.211v-8.154c0-0.291,0.19-0.541,0.458-0.541s0.497,0.25,0.497,0.541v8.154h3.057
		C383.447,120.869,383.678,121.117,383.678,121.41z"/>
	<path d="M400.078,120.869c4.894,0,8.867,4.576,8.867,10.191c0,5.574-3.974,10.191-8.867,10.191c-4.893,0-8.83-4.617-8.83-10.191
		C391.248,125.445,395.186,120.869,400.078,120.869z M400.078,140.213c4.318,0,7.911-4.117,7.911-9.152
		c0-5.074-3.593-9.15-7.911-9.15c-4.32,0-7.875,4.076-7.875,9.15C392.203,136.096,395.758,140.213,400.078,140.213z"/>
	<path d="M443.126,121.41v19.303c0,0.332-0.192,0.539-0.458,0.539c-0.307,0-0.497-0.207-0.497-0.539v-5.076
		c-1.453,3.328-4.436,5.615-7.875,5.615c-4.892,0-8.829-4.617-8.829-10.191c0-5.572,3.938-10.191,8.829-10.191
		c3.439,0,6.422,2.328,7.875,5.617v-5.076c0-0.248,0.19-0.541,0.497-0.541C442.934,120.869,443.126,121.162,443.126,121.41z
		 M442.171,131.061c0-5.033-3.556-9.109-7.875-9.109s-7.872,4.076-7.872,9.109c0,5.076,3.553,9.152,7.872,9.152
		S442.171,136.137,442.171,131.061z"/>
	<path d="M459.453,120.869c2.216,0,4.319,0.789,5.963,2.203c0.191,0.207,0.191,0.543,0.038,0.791
		c-0.152,0.209-0.42,0.209-0.651,0.043c-1.49-1.248-3.362-1.996-5.35-1.996c-4.854,0-8.678,4.117-8.678,9.15
		c0,5.035,3.823,9.152,8.678,9.152c1.987,0,3.859-0.791,5.35-2.039c0.192-0.123,0.499-0.084,0.651,0.125
		c0.153,0.248,0.153,0.539-0.038,0.75c-1.644,1.371-3.747,2.203-5.963,2.203c-5.313-0.041-9.633-4.617-9.633-10.191
		C449.82,125.445,454.14,120.869,459.453,120.869z"/>
	<path d="M479.258,121.41c0,0.291-0.229,0.5-0.497,0.5h-3.059v16.223c0,1.164,0.881,2.121,1.95,2.121
		c0.268,0,0.498,0.207,0.498,0.498c0,0.293-0.23,0.543-0.498,0.543c-1.605,0-2.904-1.416-2.904-3.162V121.91h-3.212
		c-0.266,0-0.495-0.209-0.495-0.5c0-0.293,0.229-0.541,0.495-0.541h3.212v-8.154c0-0.291,0.191-0.541,0.459-0.541
		c0.267,0,0.495,0.25,0.495,0.541v8.154h3.059C479.028,120.869,479.258,121.117,479.258,121.41z"/>
	<path d="M488.319,114.836c0-0.332,0.192-0.539,0.498-0.539c0.229,0,0.457,0.207,0.457,0.539v1c0,0.248-0.229,0.498-0.457,0.498
		c-0.306,0-0.498-0.25-0.498-0.498V114.836z M488.319,121.367c0-0.332,0.192-0.498,0.498-0.498c0.229,0,0.457,0.166,0.457,0.498
		v19.346c0,0.291-0.229,0.539-0.457,0.539c-0.306,0-0.498-0.248-0.498-0.539V121.367z"/>
	<path d="M506.977,120.869c4.894,0,8.868,4.576,8.868,10.191c0,5.574-3.975,10.191-8.868,10.191c-4.892,0-8.83-4.617-8.83-10.191
		C498.146,125.445,502.085,120.869,506.977,120.869z M506.977,140.213c4.318,0,7.912-4.117,7.912-9.152
		c0-5.074-3.594-9.15-7.912-9.15c-4.321,0-7.875,4.076-7.875,9.15C499.102,136.096,502.655,140.213,506.977,140.213z"/>
	<path d="M537.064,129.105c0-4.033-2.982-7.195-6.575-7.195s-6.612,3.162-6.612,7.195v11.607c0,0.123-0.039,0.248-0.115,0.332
		c-0.077,0.125-0.191,0.207-0.343,0.207h-0.076h-0.079c-0.037-0.041-0.074-0.041-0.113-0.082c-0.037,0-0.075-0.043-0.113-0.084
		s-0.038-0.041-0.038-0.082c-0.041-0.043-0.077-0.127-0.077-0.211v-0.08v-11.607v-0.334v-7.404c0-0.332,0.229-0.498,0.497-0.498
		c0.266,0,0.458,0.166,0.458,0.498v3.744c1.299-2.537,3.784-4.242,6.612-4.242c4.128,0,7.53,3.66,7.53,8.236v11.607
		c0,0.291-0.229,0.539-0.497,0.539c-0.307,0-0.458-0.248-0.458-0.539V129.105z"/>
</g>
</svg>
